<?xml version="1.0" encoding="UTF-8"?>
<svg version="1.1" xmlns="http://www.w3.org/2000/svg" width="474" height="88">
<path d="M0 0 C156.42 0 312.84 0 474 0 C474 29.04 474 58.08 474 88 C317.58 88 161.16 88 0 88 C0 58.96 0 29.92 0 0 Z " fill="#FCFCFB" transform="translate(0,0)"/>
<path d="M0 0 C3.18878699 0.77730508 4.16471087 1.76988904 6.03515625 4.49609375 C6.66657647 7.90636752 6.73182309 11.28428663 6.78515625 14.74609375 C6.81480469 15.68195312 6.84445313 16.6178125 6.875 17.58203125 C6.94555429 19.88680467 6.99831877 22.19057543 7.03515625 24.49609375 C7.70160156 23.84898438 8.36804688 23.201875 9.0546875 22.53515625 C12.65989068 20.06868697 15.49125128 19.80208715 19.72265625 19.87109375 C20.43019043 19.88092285 21.13772461 19.89075195 21.86669922 19.90087891 C29.62195643 20.24575351 34.66114518 22.90440455 39.97265625 28.55859375 C45.27661116 35.8269764 45.18117599 43.9356736 44.03515625 52.49609375 C41.99434415 59.45991749 38.12684975 64.57216506 32.03515625 68.49609375 C26.53107744 71.31213407 20.08074798 71.19270514 14.03515625 70.49609375 C11.50055024 69.44865423 10.14322472 68.33389703 8.03515625 66.49609375 C6.55015625 65.50609375 6.55015625 65.50609375 5.03515625 64.49609375 C4.91140625 65.13546875 4.78765625 65.77484375 4.66015625 66.43359375 C4.45390625 67.11421875 4.24765625 67.79484375 4.03515625 68.49609375 C0.92595016 70.0506968 -2.59567403 70.22330068 -5.96484375 69.49609375 C-9.10555642 66.26412137 -9.34329524 63.81613613 -9.35302734 59.39819336 C-9.36248383 58.16689194 -9.37194031 56.93559052 -9.38168335 55.66697693 C-9.37631406 54.3274605 -9.37016121 52.98794702 -9.36328125 51.6484375 C-9.36530286 50.27128444 -9.36821503 48.89413243 -9.37197876 47.51698303 C-9.3763966 44.63450908 -9.36998785 41.75231447 -9.35595703 38.86987305 C-9.33884891 35.17523233 -9.34871933 31.48124464 -9.36667442 27.78662777 C-9.37751342 24.94445369 -9.37406577 22.10243455 -9.36629105 19.26025581 C-9.36429017 17.89789312 -9.36674441 16.53551635 -9.37372971 15.17317009 C-9.38134689 13.270316 -9.36767859 11.36741254 -9.35302734 9.46459961 C-9.35064056 8.38190292 -9.34825378 7.29920624 -9.34579468 6.18370056 C-8.96484375 3.49609375 -8.96484375 3.49609375 -7.68667603 1.65040588 C-5.25720373 0.02169361 -2.86109614 0.08269064 0 0 Z " fill="#6C432F" transform="translate(21.96484375,7.50390625)"/>
<path d="M0 0 C2.19140625 1.36328125 2.19140625 1.36328125 5.19140625 3.86328125 C5.37703125 2.90421875 5.37703125 2.90421875 5.56640625 1.92578125 C5.77265625 1.24515625 5.97890625 0.56453125 6.19140625 -0.13671875 C9.28314377 -1.68258751 11.78570177 -1.43031396 15.19140625 -1.13671875 C17.38696289 0.30664062 17.38696289 0.30664062 19.19140625 2.86328125 C19.77400522 5.93712949 19.72809283 8.96138693 19.6875 12.08203125 C19.68895523 12.97692261 19.69041046 13.87181396 19.69190979 14.79382324 C19.69025188 16.68338277 19.67870269 18.57295595 19.65795898 20.46240234 C19.62900799 23.35312311 19.63735126 26.24200916 19.65039062 29.1328125 C19.64415286 30.97006099 19.63576161 32.80730369 19.625 34.64453125 C19.62793564 35.50816284 19.63087128 36.37179443 19.63389587 37.26159668 C19.57758834 40.84685966 19.53726974 43.22639521 17.80566406 46.41503906 C16.19140625 47.86328125 16.19140625 47.86328125 13.9296875 48.25390625 C13.12917969 48.2075 12.32867187 48.16109375 11.50390625 48.11328125 C10.69566406 48.0771875 9.88742187 48.04109375 9.0546875 48.00390625 C8.43980469 47.9575 7.82492187 47.91109375 7.19140625 47.86328125 C6.53140625 46.21328125 5.87140625 44.56328125 5.19140625 42.86328125 C4.17046875 43.79140625 4.17046875 43.79140625 3.12890625 44.73828125 C-2.57321165 48.8632176 -8.94607017 49.6433905 -15.80859375 48.86328125 C-22.96657654 46.55816815 -27.86158338 42.94942783 -31.68359375 36.55078125 C-35.17929823 28.93310602 -35.4777018 19.74510855 -32.76953125 11.82421875 C-26.17102633 -0.37748589 -13.04505139 -5.27970787 0 0 Z " fill="#6C4430" transform="translate(337.80859375,29.13671875)"/>
<path d="M0 0 C2.2702552 1.27968456 4.38997276 2.67664851 6.5625 4.125 C6.871875 3.485625 7.18125 2.84625 7.5 2.1875 C8.5625 0.125 8.5625 0.125 9.5625 -0.875 C16.95428629 -1.35188944 16.95428629 -1.35188944 19.16372681 0.38049316 C20.89656485 2.54163539 20.94192886 3.62090185 20.95068359 6.36523438 C20.96014008 7.21621704 20.96959656 8.06719971 20.9793396 8.94396973 C20.97326691 9.85964722 20.96719421 10.77532471 20.9609375 11.71875 C20.96380768 12.66182007 20.96667786 13.60489014 20.96963501 14.57653809 C20.97167646 16.57039999 20.96614093 18.56428188 20.95361328 20.55810547 C20.93756089 23.61341044 20.95345933 26.66739252 20.97265625 29.72265625 C20.97067383 31.65885709 20.96683019 33.59505711 20.9609375 35.53125 C20.97004654 36.90476624 20.97004654 36.90476624 20.9793396 38.30603027 C20.96988312 39.15701294 20.96042664 40.00799561 20.95068359 40.88476562 C20.94829681 41.63294556 20.94591003 42.38112549 20.94345093 43.15197754 C20.45814455 45.66547814 19.54824322 46.55826473 17.5625 48.125 C14.85866422 48.68103074 12.28389819 48.55588805 9.5625 48.125 C7.5625 46.75 7.5625 46.75 6.5625 45.125 C6.5625 44.465 6.5625 43.805 6.5625 43.125 C5.510625 44.053125 5.510625 44.053125 4.4375 45 C-1.37480934 49.29605473 -7.39011696 49.97724167 -14.4375 49.125 C-22.40776527 46.86413481 -27.21669083 40.77858927 -31.375 33.9375 C-33.48297973 26.37357274 -33.68673692 18.89312852 -30.3125 11.6875 C-23.91292604 0.6140799 -12.51036013 -6.14019514 0 0 Z " fill="#6D4430" transform="translate(106.4375,28.875)"/>
<path d="M0 0 C6.33203977 3.67195716 11.37971024 8.93143315 13.5625 16 C14.33437313 24.01491518 14.88532354 32.44767919 9.5625 39 C3.8681325 45.33707263 -1.94922007 48.41999684 -10.39453125 49.3125 C-18.69529098 49.64661863 -23.93462828 48.02520739 -30.1875 42.625 C-35.68511865 36.21111158 -37.62692445 31.53935403 -37.6875 23.1875 C-37.708125 22.48818359 -37.72875 21.78886719 -37.75 21.06835938 C-37.80267341 14.02987463 -35.21774949 9.03864136 -30.4375 4 C-21.35627408 -2.52598219 -10.61167198 -4.86504346 0 0 Z " fill="#6D4430" transform="translate(237.4375,29)"/>
<path d="M0 0 C0.66 -0.02191406 1.32 -0.04382813 2 -0.06640625 C5.29534111 0.96982406 6.26234805 2.61604669 8 5.5625 C8.60370762 8.66516722 8.69521947 11.72013957 8.75 14.875 C8.77964844 15.71095703 8.80929688 16.54691406 8.83984375 17.40820312 C8.91016107 19.45912485 8.95738973 21.51081562 9 23.5625 C9.67160156 23.07652344 10.34320313 22.59054688 11.03515625 22.08984375 C14.70509619 20.19926863 17.32344849 20.12914305 21.4375 20.125 C22.71496094 20.10566406 23.99242187 20.08632813 25.30859375 20.06640625 C31.29327647 20.87069694 34.62128075 23.71745747 38.33984375 28.29296875 C42.1261287 34.32902145 41.79688551 40.81919981 41.61743164 47.69360352 C41.56215798 49.88858187 41.55590704 52.07978403 41.55664062 54.27539062 C41.43199173 66.15663886 41.43199173 66.15663886 38 69.5625 C35.84375 70.09375 35.84375 70.09375 33.5 70.0625 C32.7265625 70.0728125 31.953125 70.083125 31.15625 70.09375 C29 69.5625 29 69.5625 27.38842773 67.9140625 C25.61369602 64.90822183 25.63123159 62.88495715 25.62890625 59.40625 C25.60280273 57.62541016 25.60280273 57.62541016 25.57617188 55.80859375 C25.56705733 53.31120912 25.56184896 50.81380717 25.56054688 48.31640625 C25.54185547 47.12917969 25.52316406 45.94195312 25.50390625 44.71875 C25.50205322 43.63400391 25.5002002 42.54925781 25.49829102 41.43164062 C24.88601698 37.90619012 23.78264452 36.73998375 21 34.5625 C18.76026053 33.90166242 18.76026053 33.90166242 16.4375 34 C15.29087891 33.96712891 15.29087891 33.96712891 14.12109375 33.93359375 C11.78947744 34.39441793 11.78947744 34.39441793 10.390625 36.72460938 C8.81115682 39.947878 8.63140186 42.02643844 8.62890625 45.59765625 C8.61150391 46.73654297 8.59410156 47.87542969 8.57617188 49.04882812 C8.5670424 51.43683719 8.56184683 53.82486447 8.56054688 56.21289062 C8.54185547 57.35048828 8.52316406 58.48808594 8.50390625 59.66015625 C8.50205322 60.69664307 8.5002002 61.73312988 8.49829102 62.80102539 C7.8772129 66.24297277 6.7003382 67.41293632 4 69.5625 C2 70.12890625 2 70.12890625 0 70.125 C-0.99 70.15787109 -0.99 70.15787109 -2 70.19140625 C-5.13360744 69.2060336 -6.19871034 67.24121947 -8 64.5625 C-8.50793457 61.71031189 -8.50793457 61.71031189 -8.51757812 58.55053711 C-8.53018677 57.36258041 -8.54279541 56.17462372 -8.55578613 54.95066833 C-8.54768921 53.67659622 -8.53959229 52.40252411 -8.53125 51.08984375 C-8.5350769 49.77464249 -8.53890381 48.45944122 -8.54284668 47.10438538 C-8.54873101 44.3261528 -8.54021292 41.54843609 -8.52148438 38.77026367 C-8.49867184 35.21344262 -8.51183721 31.65782743 -8.53577423 28.10105038 C-8.55371947 24.70138526 -8.54114947 21.3020431 -8.53125 17.90234375 C-8.53934692 16.62624741 -8.54744385 15.35015106 -8.55578613 14.03538513 C-8.54317749 12.8505806 -8.53056885 11.66577606 -8.51757812 10.44506836 C-8.51439575 9.40313828 -8.51121338 8.36120819 -8.50793457 7.28770447 C-7.6411278 2.63705491 -4.75229535 -0.00928183 0 0 Z " fill="#6F4631" transform="translate(148,7.4375)"/>
<path d="M0 0 C2.91311597 2.17249327 3.89220246 3.33837626 4.48242188 6.9609375 C4.47791016 8.08757813 4.47339844 9.21421875 4.46875 10.375 C4.48292969 11.60734375 4.49710937 12.8396875 4.51171875 14.109375 C4.50390625 16.703125 4.49609375 19.296875 4.48828125 21.890625 C4.50246094 23.12296875 4.51664062 24.3553125 4.53125 25.625 C4.52673828 26.75164063 4.52222656 27.87828125 4.51757812 29.0390625 C5.10779754 32.66162374 6.08688403 33.82750673 9 36 C12.5 36.66666667 12.5 36.66666667 16 36 C18.36497439 34.13291495 19.66030715 32.67938569 21 30 C21.11846139 28.00357717 21.17905494 26.0035864 21.2109375 24.00390625 C21.25347656 22.20663086 21.25347656 22.20663086 21.296875 20.37304688 C21.34887524 17.83673523 21.39317116 15.3002537 21.4296875 12.76367188 C21.460625 11.56419922 21.4915625 10.36472656 21.5234375 9.12890625 C21.54325684 8.02619385 21.56307617 6.92348145 21.58349609 5.78735352 C22 3 22 3 23.40869141 1.1418457 C25.39564082 -0.28389262 26.57002095 -0.4026134 29 -0.375 C30.0209375 -0.38660156 30.0209375 -0.38660156 31.0625 -0.3984375 C33.68193874 0.1402374 34.40474659 0.84464893 36 3 C36.57129588 7.32562459 36.47241293 11.67281267 36.44604492 16.03149414 C36.43759601 18.16327437 36.46618904 20.29231694 36.49804688 22.42382812 C36.54384099 31.09477507 35.99714671 37.17360841 30.32421875 44.0234375 C23.47970084 49.67547377 16.90342034 50.47912345 8.15625 50.30859375 C1.06397045 49.61516543 -3.2054709 46.34396793 -7.7734375 41.07421875 C-12.00606886 33.91648864 -11.36674425 25.8742414 -11.375 17.8125 C-11.39949219 16.54212891 -11.42398437 15.27175781 -11.44921875 13.96289062 C-11.45501953 12.13467773 -11.45501953 12.13467773 -11.4609375 10.26953125 C-11.46915527 9.16198486 -11.47737305 8.05443848 -11.48583984 6.91333008 C-10.38633311 0.32015727 -6.1056843 -0.87224061 0 0 Z " fill="#6C4430" transform="translate(429,28)"/>
<path d="M0 0 C0.81662109 -0.01998047 1.63324219 -0.03996094 2.47460938 -0.06054688 C8.25921133 -0.05593763 12.92757474 1.01872514 17.6875 4.4375 C19.6875 7.4375 19.6875 7.4375 19.5 10.5 C18.6875 13.4375 18.6875 13.4375 15.6875 15.4375 C12.75 15.75 12.75 15.75 9.6875 15.4375 C9.089375 14.9425 8.49125 14.4475 7.875 13.9375 C4.41920417 11.56781143 0.75659954 12.20274426 -3.3125 12.4375 C-3.9725 13.7575 -4.6325 15.0775 -5.3125 16.4375 C-4.55066406 16.60765625 -3.78882813 16.7778125 -3.00390625 16.953125 C14.47015498 21.05440279 14.47015498 21.05440279 20.6875 28.4375 C22.55961155 32.18172309 22.31345843 36.45596281 21.07421875 40.37890625 C18.56680057 45.49315567 14.91617573 47.51891334 9.6875 49.4375 C1.05176694 52.09464863 -8.81183715 50.60746245 -16.8125 46.75 C-19.3125 44.4375 -19.3125 44.4375 -20.375 40.9375 C-20.3125 37.4375 -20.3125 37.4375 -19.25 35 C-17.3125 33.4375 -17.3125 33.4375 -14.5625 32.9375 C-11.13391403 33.46497477 -9.20673545 34.70724637 -6.32421875 36.546875 C-2.50945013 38.23574344 1.60344994 37.73332656 5.6875 37.4375 C6.0175 36.1175 6.3475 34.7975 6.6875 33.4375 C3.73115822 31.79584477 1.14078624 31.04434588 -2.1875 30.5 C-8.95250958 29.19064331 -13.80115766 26.96960049 -18.16796875 21.53125 C-20.32224571 17.59032014 -20.26711752 13.75465089 -19.3125 9.4375 C-15.13960399 1.32918986 -8.2997048 -0.07104806 0 0 Z " fill="#6D4531" transform="translate(387.3125,27.5625)"/>
<path d="M0 0 C3.02930897 0.09756229 4.47461864 0.29430756 7.1875 1.75 C9.41515889 5.81789884 8.93679274 9.83668352 8.625 14.375 C9.52992188 14.30539063 9.52992188 14.30539063 10.453125 14.234375 C16.9411918 13.94136553 16.9411918 13.94136553 20.1875 16 C22.06410956 19.10048536 22.21952734 20.80783597 21.625 24.375 C20.1875 26.75 20.1875 26.75 17.625 28.375 C15.40600586 28.53369141 15.40600586 28.53369141 12.96484375 28.4765625 C11.74655884 28.45456787 11.74655884 28.45456787 10.50366211 28.43212891 C9.88370361 28.41327637 9.26374512 28.39442383 8.625 28.375 C8.76320269 31.6878652 8.91183778 35.00017989 9.0625 38.3125 C9.10181641 39.25802734 9.14113281 40.20355469 9.18164062 41.17773438 C9.22353516 42.07685547 9.26542969 42.97597656 9.30859375 43.90234375 C9.34525146 44.73499756 9.38190918 45.56765137 9.41967773 46.42553711 C9.41867103 48.37838858 9.41867103 48.37838858 10.625 49.375 C13.19891641 49.90676398 15.78359517 50.33930799 18.375 50.77734375 C19.1175 50.97457031 19.86 51.17179687 20.625 51.375 C22.087958 54.300916 22.07023109 56.13117347 21.625 59.375 C18.88746418 62.77842291 17.29180396 64.09102599 12.98828125 64.82421875 C5.54025711 65.11888819 1.84176042 63.24400253 -3.6875 58.3125 C-6.67277636 54.88496048 -6.49391739 51.75306575 -6.47265625 47.39453125 C-6.46943359 46.23115234 -6.46621094 45.06777344 -6.46289062 43.86914062 C-6.45451172 42.65419922 -6.44613281 41.43925781 -6.4375 40.1875 C-6.43073242 38.34768555 -6.43073242 38.34768555 -6.42382812 36.47070312 C-6.41203065 33.43875332 -6.39556921 30.40690094 -6.375 27.375 C-7.65375 27.40980469 -8.9325 27.44460937 -10.25 27.48046875 C-14.125 27.5859375 -14.125 27.5859375 -16.375 25.6875 C-17.57362599 22.9156774 -17.89758446 21.36119691 -17.375 18.375 C-15.8125 16.0625 -15.8125 16.0625 -13.375 14.375 C-9.625 14.125 -9.625 14.125 -6.375 14.375 C-6.39820313 13.53195313 -6.42140625 12.68890625 -6.4453125 11.8203125 C-6.46335937 10.72460938 -6.48140625 9.62890625 -6.5 8.5 C-6.52320313 7.40945312 -6.54640625 6.31890625 -6.5703125 5.1953125 C-6.24764442 0.53598548 -4.21567887 0.07002789 0 0 Z " fill="#6F4733" transform="translate(275.375,13.625)"/>
<path d="M0 0 C16.8929385 -0.92255125 16.8929385 -0.92255125 24 5 C24.12375 4.360625 24.2475 3.72125 24.375 3.0625 C24.684375 2.0415625 24.684375 2.0415625 25 1 C28.09173752 -0.54586876 30.59429552 -0.29359521 34 0 C36.19555664 1.44335938 36.19555664 1.44335938 38 4 C38.58259897 7.07384824 38.53668658 10.09810568 38.49609375 13.21875 C38.49754898 14.11364136 38.49900421 15.00853271 38.50050354 15.93054199 C38.49884563 17.82010152 38.48729644 19.7096747 38.46655273 21.59912109 C38.43760174 24.48984186 38.44594501 27.37872791 38.45898438 30.26953125 C38.45274661 32.10677974 38.44435536 33.94402244 38.43359375 35.78125 C38.43652939 36.64488159 38.43946503 37.50851318 38.44248962 38.39831543 C38.38702435 41.92994936 38.31505347 44.37784206 36.70336914 47.56054688 C33.99813743 49.84663633 31.39168611 49.25597631 28 49 C28.66 48.01 29.32 47.02 30 46 C30 45.01 30 44.02 30 43 C30.99 43 31.98 43 33 43 C33 42.34 33 41.68 33 41 C32.07767578 41.10828125 32.07767578 41.10828125 31.13671875 41.21875 C30.32847656 41.3115625 29.52023437 41.404375 28.6875 41.5 C27.88699219 41.5928125 27.08648437 41.685625 26.26171875 41.78125 C24 42 24 42 21 42 C18.99690671 42.31421071 16.99628664 42.6451046 15 43 C15 42.01 15 41.02 15 40 C13.02 40 11.04 40 9 40 C8.505 38.515 8.505 38.515 8 37 C8.60328125 36.91363281 9.2065625 36.82726562 9.828125 36.73828125 C15.22313317 35.80021731 15.22313317 35.80021731 19.5 32.5 C21.99703571 28.33827382 22.41110506 25.93326075 22 21 C19.7412063 16.75971381 19.7412063 16.75971381 16 14 C14.35744209 13.87885079 12.70947522 13.82459233 11.0625 13.8125 C9.74958984 13.79123047 9.74958984 13.79123047 8.41015625 13.76953125 C5.73755665 13.83336651 5.73755665 13.83336651 3 16 C2.67 14.02 2.34 12.04 2 10 C1.01 10.99 0.02 11.98 -1 13 C-2.26865682 9.19402954 -1.28937726 7.71644033 0 4 C0 2.68 0 1.36 0 0 Z " fill="#6C432E" transform="translate(319,28)"/>
<path d="M0 0 C2.62470322 0.42893983 3.35856508 1.27123442 5.0078125 3.328125 C5.38876343 5.30114746 5.38876343 5.30114746 5.39599609 7.56835938 C5.40545258 8.41934204 5.41490906 9.27032471 5.4246521 10.14709473 C5.41857941 11.06277222 5.41250671 11.97844971 5.40625 12.921875 C5.40912018 13.86494507 5.41199036 14.80801514 5.41494751 15.77966309 C5.41698896 17.77352499 5.41145343 19.76740688 5.39892578 21.76123047 C5.38287339 24.81653544 5.39877183 27.87051752 5.41796875 30.92578125 C5.41598633 32.86198209 5.41214269 34.79818211 5.40625 36.734375 C5.41535904 38.10789124 5.41535904 38.10789124 5.4246521 39.50915527 C5.41519562 40.36013794 5.40573914 41.21112061 5.39599609 42.08789062 C5.39360931 42.83607056 5.39122253 43.58425049 5.38876343 44.35510254 C4.90345705 46.86860314 3.99355572 47.76138973 2.0078125 49.328125 C-0.69602328 49.88415574 -3.27078931 49.75901305 -5.9921875 49.328125 C-7.9921875 47.953125 -7.9921875 47.953125 -8.9921875 46.328125 C-8.9921875 45.668125 -8.9921875 45.008125 -8.9921875 44.328125 C-9.9203125 44.8540625 -9.9203125 44.8540625 -10.8671875 45.390625 C-11.5684375 45.7 -12.2696875 46.009375 -12.9921875 46.328125 C-13.6521875 45.998125 -14.3121875 45.668125 -14.9921875 45.328125 C-16.4771875 45.823125 -16.4771875 45.823125 -17.9921875 46.328125 C-17.9921875 44.348125 -17.9921875 42.368125 -17.9921875 40.328125 C-16.6721875 40.328125 -15.3521875 40.328125 -13.9921875 40.328125 C-11.57871011 38.59042128 -10.77733877 36.89842754 -9.4296875 34.203125 C-7.9921875 31.328125 -7.9921875 31.328125 -5.9921875 30.328125 C-6.6521875 29.338125 -7.3121875 28.348125 -7.9921875 27.328125 C-8.9821875 29.308125 -9.9721875 31.288125 -10.9921875 33.328125 C-11.3221875 32.668125 -11.6521875 32.008125 -11.9921875 31.328125 C-11.6621875 30.668125 -11.3321875 30.008125 -10.9921875 29.328125 C-10.79460519 27.25247824 -10.79460519 27.25247824 -10.8046875 24.953125 C-10.79050781 24.18226562 -10.77632813 23.41140625 -10.76171875 22.6171875 C-11.02113182 20.04064412 -11.59878596 18.50386827 -12.9921875 16.328125 C-13.9821875 15.668125 -14.9721875 15.008125 -15.9921875 14.328125 C-16.71950457 9.96422258 -15.09210599 7.09047896 -12.9921875 3.328125 C-11.6721875 3.988125 -10.3521875 4.648125 -8.9921875 5.328125 C-8.6828125 4.68875 -8.3734375 4.049375 -8.0546875 3.390625 C-6.06946916 -0.46303412 -4.20819726 0.15528403 0 0 Z " fill="#6C432E" transform="translate(121.9921875,27.671875)"/>
<path d="M0 0 C3.93451966 1.63938319 5.39379355 3.1311375 7 7 C7.73651586 11.71027588 7.42246633 15.17015542 5.25 19.4375 C2.02903178 23.10582492 0.46320931 23.83742119 -4.375 24.375 C-8.69296607 23.92831385 -10.69326548 22.7684289 -14 20 C-16.74718337 15.6026314 -16.68375805 11.03050562 -16 6 C-11.89297748 -0.70813679 -7.33818474 -0.647147 0 0 Z " fill="#FAF8F6" transform="translate(44,41)"/>
<path d="M0 0 C2.89683868 2.2015974 4.39297231 3.78594462 6 7 C6.57717357 11.73093088 6.43416625 15.14717343 4.25 19.4375 C1.05740667 23.07350908 -0.55802534 23.78234345 -5.3125 24.5 C-10.22438844 23.83398123 -12.70893873 21.58855833 -16 18 C-17.76938948 14.46122104 -17.6277038 10.85410135 -17 7 C-13.67588618 -0.49287951 -7.60242144 -1.68942699 0 0 Z " fill="#F8F6F3" transform="translate(106,41)"/>
<path d="M0 0 C3.50252011 2.04313673 5.77361702 4.09787233 7 8 C7.46931049 12.2237944 7.28387834 14.45327135 5.3125 18.25 C2.18596768 21.96803843 -0.09874344 23.71683413 -4.9375 24.4375 C-8.86292527 23.87672496 -10.94797605 22.49711051 -14 20 C-16.74555138 15.58079059 -16.87248364 11.04454179 -16 6 C-12.70901638 -0.58196724 -6.73960601 -1.32766863 0 0 Z " fill="#F9F8F5" transform="translate(335,41)"/>
<path d="M0 0 C5.0744932 0.06650712 5.0744932 0.06650712 7.48828125 1.7734375 C11.26973957 6.34688266 12.17542417 9.64490992 11.6875 15.5 C9.66083762 19.20390021 8.20705484 21.15363011 4.6875 23.5 C0.18467589 24.22517392 -3.30535654 24.10000036 -7.25 21.75 C-10.30342049 18.41899583 -11.18395424 16.65691184 -11.6875 12.125 C-10.94937917 4.98983197 -7.14054073 0.23189848 0 0 Z " fill="#F7F6F3" transform="translate(225.3125,40.5)"/>
<path d="M0 0 C3.9375 0.5 3.9375 0.5 5.9375 2.5 C6.2675 3.16 6.5975 3.82 6.9375 4.5 C6.2775 5.82 5.6175 7.14 4.9375 8.5 C4.2775 7.51 3.6175 6.52 2.9375 5.5 C2.6075 6.49 2.2775 7.48 1.9375 8.5 C0.9475 8.5 -0.0425 8.5 -1.0625 8.5 C-1.330625 9.139375 -1.59875 9.77875 -1.875 10.4375 C-3.0625 12.5 -3.0625 12.5 -6.0625 13.5 C-6.3925 30.33 -6.7225 47.16 -7.0625 64.5 C-7.3925 64.5 -7.7225 64.5 -8.0625 64.5 C-8.15522074 56.74614942 -8.22627508 48.99242894 -8.26974869 41.23816299 C-8.29061513 37.63741714 -8.31891421 34.03705084 -8.36425781 30.43652344 C-8.40775125 26.96112087 -8.43164421 23.48608312 -8.44200897 20.01042938 C-8.45298615 18.04054216 -8.484207 16.07080153 -8.51568604 14.10113525 C-8.51598816 12.90019226 -8.51629028 11.69924927 -8.51660156 10.46191406 C-8.52548401 9.40490295 -8.53436646 8.34789185 -8.54351807 7.2588501 C-7.71743527 2.52090208 -4.81310749 -0.07419048 0 0 Z " fill="#8C6D5D" transform="translate(148.0625,7.5)"/>
<path d="M0 0 C0.33 0 0.66 0 1 0 C1.07420027 5.48092694 1.1286258 10.96156099 1.16479492 16.44287109 C1.17987414 18.30718072 1.20034061 20.17145492 1.22631836 22.03564453 C1.26273996 24.71656033 1.2797349 27.3970068 1.29296875 30.078125 C1.30845261 30.91055725 1.32393646 31.7429895 1.33988953 32.60064697 C1.34089932 36.07892244 1.30183468 38.40422699 -0.2878418 41.54199219 C-2.99667457 43.84872958 -5.59268715 43.25715569 -9 43 C-8.34 42.01 -7.68 41.02 -7 40 C-7 39.01 -7 38.02 -7 37 C-5.02 36.505 -5.02 36.505 -3 36 C-2.19849354 31.61373385 -1.75001761 27.30027478 -1.46484375 22.8515625 C-1.42186661 22.19417084 -1.37888947 21.53677917 -1.33460999 20.85946655 C-1.19940791 18.7814825 -1.06838554 16.70325994 -0.9375 14.625 C-0.84598041 13.20701333 -0.75418621 11.78904435 -0.66210938 10.37109375 C-0.43823169 6.91426133 -0.21809899 3.45720238 0 0 Z " fill="#603421" transform="translate(356,34)"/>
<path d="M0 0 C0.33 0 0.66 0 1 0 C1.00586624 0.71774597 1.01173248 1.43549194 1.01777649 2.17498779 C1.07571147 8.9433731 1.14779276 15.71147631 1.23571491 22.47953415 C1.28041795 25.95898873 1.31967378 29.43832625 1.34643555 32.91796875 C1.37745139 36.91957174 1.43223997 40.92054368 1.48828125 44.921875 C1.49467117 46.16990906 1.5010611 47.41794312 1.50764465 48.70379639 C1.52743881 49.86469788 1.54723297 51.02559937 1.56762695 52.22167969 C1.57873001 53.24316101 1.58983307 54.26464233 1.60127258 55.31707764 C2.05221638 58.35134901 2.97222417 59.74386754 5 62 C3.68 62 2.36 62 1 62 C-0.34049527 59.31900947 -0.1198052 57.26688794 -0.11352539 54.26513672 C-0.11344986 53.06404266 -0.11337433 51.86294861 -0.11329651 50.62545776 C-0.10813522 49.32335358 -0.10297394 48.02124939 -0.09765625 46.6796875 C-0.09579138 45.33733167 -0.0943678 43.99497516 -0.09336853 42.65261841 C-0.08954878 39.11804325 -0.07972312 35.58350913 -0.06866455 32.0489502 C-0.05843878 28.44279536 -0.05386841 24.8366339 -0.04882812 21.23046875 C-0.03810038 14.15362904 -0.02103045 7.0768172 0 0 Z " fill="#5B341E" transform="translate(141,13)"/>
<path d="M0 0 C0.66 0 1.32 0 2 0 C4.10555444 8.15902344 2.88735503 15.92818698 1 24 C0.67 24 0.34 24 0 24 C0 16.08 0 8.16 0 0 Z " fill="#673C1F" transform="translate(451,34)"/>
<path d="M0 0 C1.79133978 -0.05391993 3.58313899 -0.09275571 5.375 -0.125 C6.37273437 -0.14820312 7.37046875 -0.17140625 8.3984375 -0.1953125 C11 0 11 0 13 2 C13.3125 4.5 13.3125 4.5 13 7 C12.01 7.66 11.02 8.32 10 9 C9.34 8.67 8.68 8.34 8 8 C8 7.34 8 6.68 8 6 C7.34 5.67 6.68 5.34 6 5 C6.99 5 7.98 5 9 5 C8.34 4.01 7.68 3.02 7 2 C3.43230448 1.26393501 3.43230448 1.26393501 0 1 C0 0.67 0 0.34 0 0 Z " fill="#653B29" transform="translate(283,29)"/>
<path d="M0 0 C1.87365234 -0.02126953 1.87365234 -0.02126953 3.78515625 -0.04296875 C6.9375 0.1875 6.9375 0.1875 8.9375 2.1875 C7.73351562 2.23648437 6.52953125 2.28546875 5.2890625 2.3359375 C3.71351802 2.41096343 2.13799834 2.48651133 0.5625 2.5625 C-0.2315625 2.5934375 -1.025625 2.624375 -1.84375 2.65625 C-6.42917375 2.70566421 -6.42917375 2.70566421 -10.0625 5.1875 C-12.1875 4.8125 -12.1875 4.8125 -14.0625 4.1875 C-9.36153621 0.45914941 -5.95926976 0.03081318 0 0 Z " fill="#725545" transform="translate(225.0625,26.8125)"/>
<path d="M0 0 C5.94 0.99 5.94 0.99 12 2 C11.01 2.495 11.01 2.495 10 3 C10 3.66 10 4.32 10 5 C13.63 5 17.26 5 21 5 C21 5.33 21 5.66 21 6 C13.15910231 6.47045386 7.69975405 6.29795543 1 2 C0.67 1.34 0.34 0.68 0 0 Z " fill="#765A4C" transform="translate(209,72)"/>
<path d="M0 0 C-1.15173355 2.46800047 -2.04783565 4.04783565 -4 6 C-4.23600253 10.16937798 -3.98329211 13.94392005 -3 18 C-2.01 18.33 -1.02 18.66 0 19 C-0.66 19.66 -1.32 20.32 -2 21 C-5.77653263 16.5153675 -6.62837079 13.21095515 -6.3984375 7.34765625 C-5.7739286 3.66795184 -4.09379968 0 0 0 Z " fill="#EDE0D7" transform="translate(34,42)"/>
<path d="M0 0 C0.99 0.99 1.98 1.98 3 3 C2.34 4.98 1.68 6.96 1 9 C-2.63 9 -6.26 9 -10 9 C-10 8.67 -10 8.34 -10 8 C-7.03 7.34 -4.06 6.68 -1 6 C-0.67 4.02 -0.34 2.04 0 0 Z " fill="#764B3B" transform="translate(233,32)"/>
<path d="M0 0 C-2 2 -2 2 -4.4375 2.9375 C-6.97065221 3.9878314 -8.23145796 4.95221448 -10 7 C-10.6875 5.1875 -10.6875 5.1875 -11 3 C-8.69211729 -1.30804773 -4.25159903 -0.20909503 0 0 Z " fill="#765848" transform="translate(24,8)"/>
<path d="M0 0 C0.66 0.33 1.32 0.66 2 1 C0.75 3.4375 0.75 3.4375 -1 6 C-2.32 6.33 -3.64 6.66 -5 7 C-5 9.97 -5 12.94 -5 16 C-5.33 16 -5.66 16 -6 16 C-6.92017937 7.37757848 -6.92017937 7.37757848 -4.6640625 4 C-3 2.375 -3 2.375 0 0 Z " fill="#F0E4DB" transform="translate(325,41)"/>
<path d="M0 0 C0.93065133 2.60582371 1.14917407 3.64198224 0.0625 6.25 C-0.4634375 7.11625 -0.4634375 7.11625 -1 8 C-1.33 8 -1.66 8 -2 8 C-2.33 10.31 -2.66 12.62 -3 15 C-3.33 15 -3.66 15 -4 15 C-4.63019694 5.98468271 -4.63019694 5.98468271 -2 1.875 C-1.34 1.25625 -0.68 0.6375 0 0 Z " fill="#816559" transform="translate(372,32)"/>
<path d="M0 0 C1.98 0 3.96 0 6 0 C4.68 2.31 3.36 4.62 2 7 C1.34 7 0.68 7 0 7 C0 4.69 0 2.38 0 0 Z " fill="#6E4734" transform="translate(370,61)"/>
<path d="M0 0 C2.4375 1.125 2.4375 1.125 5 3 C5.8125 6.1875 5.8125 6.1875 6 9 C5.01 9.495 5.01 9.495 4 10 C3.32845067 8.71086513 2.66291141 7.41859796 2 6.125 C1.62875 5.40570313 1.2575 4.68640625 0.875 3.9453125 C0 2 0 2 0 0 Z " fill="#6D4E3E" transform="translate(401,30)"/>
<path d="M0 0 C0.6875 1.8125 0.6875 1.8125 1 4 C-0.125 5.625 -0.125 5.625 -2 7 C-4.69921875 7.29296875 -4.69921875 7.29296875 -7.6875 7.1875 C-8.68136719 7.16042969 -9.67523438 7.13335937 -10.69921875 7.10546875 C-11.45847656 7.07066406 -12.21773438 7.03585938 -13 7 C-13 6.67 -13 6.34 -13 6 C-12.09507812 5.92652344 -12.09507812 5.92652344 -11.171875 5.8515625 C-10.37265625 5.77679688 -9.5734375 5.70203125 -8.75 5.625 C-7.96109375 5.55539063 -7.1721875 5.48578125 -6.359375 5.4140625 C-3.914123 4.98492887 -2.15163097 4.21399362 0 3 C0 2.01 0 1.02 0 0 Z " fill="#5D3A28" transform="translate(295,70)"/>
<path d="M0 0 C0.33 0.99 0.66 1.98 1 3 C1.66 3 2.32 3 3 3 C3.66 4.32 4.32 5.64 5 7 C4.01 7.66 3.02 8.32 2 9 C1.34 8.67 0.68 8.34 0 8 C0 5.36 0 2.72 0 0 Z " fill="#643E29" transform="translate(369,38)"/>
<path d="M0 0 C0.89589844 -0.01417969 1.79179688 -0.02835938 2.71484375 -0.04296875 C5.0625 0.1875 5.0625 0.1875 7.0625 2.1875 C5.64816794 2.4111337 4.23082382 2.61576476 2.8125 2.8125 C2.02359375 2.92851562 1.2346875 3.04453125 0.421875 3.1640625 C-2.25902459 3.19069395 -3.66444089 2.55342084 -5.9375 1.1875 C-4.27188601 -0.47811399 -2.27787295 0.01634055 0 0 Z " fill="#785C4B" transform="translate(96.9375,26.8125)"/>
<path d="M0 0 C0.33 0.66 0.66 1.32 1 2 C1.66 2.33 2.32 2.66 3 3 C1.02 4.32 -0.96 5.64 -3 7 C-3.33 5.35 -3.66 3.7 -4 2 C-2.68 1.34 -1.36 0.68 0 0 Z " fill="#724C39" transform="translate(340,69)"/>
<path d="M0 0 C0.8353125 0.37125 0.8353125 0.37125 1.6875 0.75 C1.0275 2.07 0.3675 3.39 -0.3125 4.75 C-2.6225 4.42 -4.9325 4.09 -7.3125 3.75 C-2.88173077 -0.31153846 -2.88173077 -0.31153846 0 0 Z " fill="#735240" transform="translate(380.3125,28.25)"/>
<path d="M0 0 C3.375 0.3125 3.375 0.3125 7 1 C7.66 1.99 8.32 2.98 9 4 C5.37 3.67 1.74 3.34 -2 3 C-1.34 2.01 -0.68 1.02 0 0 Z " fill="#6F4C38" transform="translate(454,28)"/>
<path d="M0 0 C1.45823212 -0.0270043 2.91660675 -0.04639787 4.375 -0.0625 C5.18710937 -0.07410156 5.99921875 -0.08570313 6.8359375 -0.09765625 C9 0 9 0 11 1 C11 1.99 11 2.98 11 4 C9.68 3.67 8.36 3.34 7 3 C7 2.34 7 1.68 7 1 C6.401875 1.20625 5.80375 1.4125 5.1875 1.625 C3 2 3 2 0 0 Z " fill="#5F3C2B" transform="translate(285,64)"/>
<path d="M0 0 C2 0.3125 2 0.3125 4 1 C4.33 1.66 4.66 2.32 5 3 C4.67 3.66 4.34 4.32 4 5 C2.68 5 1.36 5 0 5 C-0.5625 3.0625 -0.5625 3.0625 -1 1 C-0.67 0.67 -0.34 0.34 0 0 Z " fill="#67402B" transform="translate(143,9)"/>
<path d="M0 0 C0.99 0 1.98 0 3 0 C2.6875 1.875 2.6875 1.875 2 4 C1.01 4.66 0.02 5.32 -1 6 C-1.625 4.125 -1.625 4.125 -2 2 C-1.34 1.34 -0.68 0.68 0 0 Z " fill="#775646" transform="translate(271,14)"/>
<path d="M0 0 C1.0625 1.875 1.0625 1.875 2 4 C1.67 4.66 1.34 5.32 1 6 C-1.5625 6.625 -1.5625 6.625 -4 7 C-1.125 1.125 -1.125 1.125 0 0 Z " fill="#6C4E3E" transform="translate(80,35)"/>
<path d="M0 0 C0.66 0.66 1.32 1.32 2 2 C2.99 1.34 3.98 0.68 5 0 C3.75023244 3.65316671 3.32901247 4.78065836 0 7 C-0.38133299 5.0085944 -0.71325582 3.00720923 -1 1 C-0.67 0.67 -0.34 0.34 0 0 Z " fill="#623A2B" transform="translate(458,65)"/>
<path d="M0 0 C2 3 2 3 2 7 C0.35 7.33 -1.3 7.66 -3 8 C-2.67 7.01 -2.34 6.02 -2 5 C-1.34 5 -0.68 5 0 5 C0 4.01 0 3.02 0 2 C-0.66 1.67 -1.32 1.34 -2 1 C-1.34 0.67 -0.68 0.34 0 0 Z " fill="#744A34" transform="translate(28,57)"/>
<path d="M0 0 C0.33 0.99 0.66 1.98 1 3 C-1.64 3.66 -4.28 4.32 -7 5 C-2.25 0 -2.25 0 0 0 Z " fill="#6E5240" transform="translate(36,28)"/>
<path d="M0 0 C0.99 0 1.98 0 3 0 C3 1.32 3 2.64 3 4 C1.68 4.33 0.36 4.66 -1 5 C-1 4.34 -1 3.68 -1 3 C-1.66 2.67 -2.32 2.34 -3 2 C-2.01 2 -1.02 2 0 2 C0 1.34 0 0.68 0 0 Z " fill="#754F3C" transform="translate(114,69)"/>
<path d="M0 0 C2.31 0 4.62 0 7 0 C5.8125 1.5 5.8125 1.5 4 3 C1.3125 3.1875 1.3125 3.1875 -1 3 C-0.67 2.01 -0.34 1.02 0 0 Z " fill="#F6EDE7" transform="translate(226,61)"/>
<path d="M0 0 C0.33 0 0.66 0 1 0 C1.33 3.63 1.66 7.26 2 11 C1.01 11 0.02 11 -1 11 C-0.67 7.37 -0.34 3.74 0 0 Z " fill="#5C3D29" transform="translate(237,48)"/>
<path d="M0 0 C0.66 0 1.32 0 2 0 C0.47291037 3.43595166 -1.59927045 6.11912454 -4 9 C-3.4739075 5.21213403 -2.61896089 2.82847776 0 0 Z " fill="#E4D8D1" transform="translate(32,42)"/>
</svg>
